<svg width="20" height="22" viewBox="0 0 20 22" fill="none" xmlns="http://www.w3.org/2000/svg">
<path d="M0.15423 11.4386L9.08455 21.8167C9.29482 22.0611 9.63204 22.0611 9.8423 21.8167C10.0526 21.5724 10.0526 21.1805 9.8423 20.9361L1.29284 11.0006L9.8423 1.06502C10.0526 0.820662 10.0526 0.428774 9.8423 0.184418C9.73915 0.0645466 9.6003 -3.49431e-08 9.46541 -4.67353e-08C9.33053 -5.85275e-08 9.19167 0.0599365 9.08852 0.184418L0.158196 10.5626C-0.0520687 10.8023 -0.0520678 11.1988 0.15423 11.4386Z" fill="white"/>
<path d="M10.1542 11.4386L19.0846 21.8167C19.2948 22.0611 19.632 22.0611 19.8423 21.8167C20.0526 21.5724 20.0526 21.1805 19.8423 20.9361L11.2928 11.0006L19.8423 1.06502C20.0526 0.820662 20.0526 0.428774 19.8423 0.184418C19.7392 0.0645466 19.6003 -3.49431e-08 19.4654 -4.67353e-08C19.3305 -5.85275e-08 19.1917 0.0599365 19.0885 0.184418L10.1582 10.5626C9.94793 10.8023 9.94793 11.1988 10.1542 11.4386Z" fill="white"/>
</svg>

