<svg width="20" height="22" viewBox="0 0 20 22" fill="none" xmlns="http://www.w3.org/2000/svg">
<path d="M19.8458 11.4386L10.9154 21.8167C10.7052 22.0611 10.368 22.0611 10.1577 21.8167C9.94743 21.5724 9.94743 21.1805 10.1577 20.9361L18.7072 11.0006L10.1577 1.06502C9.94743 0.820662 9.94743 0.428774 10.1577 0.184418C10.2608 0.0645466 10.3997 -3.49431e-08 10.5346 -4.67353e-08C10.6695 -5.85275e-08 10.8083 0.0599365 10.9115 0.184418L19.8418 10.5626C20.0521 10.8023 20.0521 11.1988 19.8458 11.4386Z" fill="white"/>
<path d="M9.84577 11.4386L0.915447 21.8167C0.705182 22.0611 0.367964 22.0611 0.157699 21.8167C-0.0525664 21.5724 -0.0525664 21.1805 0.157699 20.9361L8.70716 11.0006L0.157697 1.06502C-0.0525682 0.820662 -0.0525682 0.428774 0.157697 0.184418C0.260846 0.0645466 0.3997 -3.49431e-08 0.534588 -4.67353e-08C0.669475 -5.85275e-08 0.80833 0.0599365 0.911479 0.184418L9.8418 10.5626C10.0521 10.8023 10.0521 11.1988 9.84577 11.4386Z" fill="white"/>
</svg>

