<svg width="31" height="30" viewBox="0 0 31 30" fill="none" xmlns="http://www.w3.org/2000/svg">
    <path d="M16.3363 15.2766L9.86432 10.5951C9.66632 10.4526 9.39182 10.4736 9.21782 10.6471C9.04382 10.8211 9.02232 11.0951 9.16582 11.2936L13.8483 17.7666C14.1553 18.1891 14.6298 18.4546 15.1503 18.4951C15.1973 18.4986 15.2438 18.5001 15.2898 18.5001C15.7608 18.5001 16.2138 18.3141 16.5493 17.9781C16.9178 17.6096 17.1063 17.1001 17.0658 16.5796C17.0253 16.0591 16.7598 15.5846 16.3363 15.2766ZM15.8423 17.2711C15.6803 17.4326 15.4548 17.5151 15.2283 17.4976C15.0003 17.4801 14.7918 17.3631 14.6578 17.1791L11.8013 13.2306L15.7488 16.0861C15.9343 16.2211 16.0508 16.4296 16.0688 16.6581C16.0868 16.8856 16.0038 17.1096 15.8423 17.2711Z" fill="white"/>
    <path d="M28.1118 13.011C28.1113 13.0095 28.1118 13.0075 28.1113 13.006C28.1108 13.004 28.1093 13.0025 28.1088 13.0005C27.8028 11.861 27.3498 10.782 26.7738 9.782C26.7688 9.7715 26.7688 9.7605 26.7628 9.75C26.7568 9.74 26.7473 9.7345 26.7408 9.725C26.2353 8.8575 25.6373 8.0515 24.9578 7.3205L26.0313 6.247L26.7388 6.954L28.8598 4.833L26.7388 2.7115L24.6173 4.833L25.3243 5.54L24.2508 6.6135C23.5198 5.9345 22.7138 5.336 21.8463 4.8305C21.8368 4.824 21.8313 4.8145 21.8213 4.8085C21.8113 4.8025 21.7993 4.803 21.7893 4.7975C20.7893 4.221 19.7103 3.7685 18.5713 3.4625C18.5693 3.462 18.5678 3.4605 18.5658 3.46C18.5638 3.4595 18.5623 3.46 18.5608 3.46C17.9148 3.287 17.2508 3.161 16.5713 3.0855V2.5H17.3213C18.0108 2.5 18.5713 1.9395 18.5713 1.25C18.5713 0.5605 18.0108 0 17.3213 0H12.8213C12.1318 0 11.5713 0.5605 11.5713 1.25C11.5713 1.9395 12.1318 2.5 12.8213 2.5H13.5713V3.0855C12.8918 3.161 12.2278 3.287 11.5823 3.46C11.5803 3.4605 11.5788 3.46 11.5773 3.4605C11.5753 3.461 11.5738 3.4625 11.5718 3.463C10.4328 3.769 9.35384 4.222 8.35384 4.798C8.34334 4.803 8.33184 4.803 8.32134 4.809C8.31134 4.815 8.30584 4.8245 8.29634 4.831C7.42934 5.3365 6.62284 5.9345 5.89184 6.614L4.81834 5.54L5.52534 4.833L3.40384 2.7115L1.28284 4.833L3.40384 6.954L4.11134 6.247L5.18484 7.3205C4.50584 8.0515 3.90734 8.8575 3.40234 9.725C3.39584 9.7345 3.38584 9.74 3.38034 9.75C3.37434 9.7605 3.37484 9.7715 3.36934 9.782C2.79284 10.782 2.34034 11.861 2.03434 13.0005C2.03384 13.0025 2.03234 13.004 2.03184 13.006C2.03134 13.0075 2.03184 13.0095 2.03134 13.011C1.73284 14.125 1.57134 15.2935 1.57134 16.5C1.57134 17.7065 1.73284 18.875 2.03084 19.989C2.03134 19.991 2.03084 19.9925 2.03134 19.994C2.03184 19.9965 2.03384 19.9985 2.03434 20.001C2.34034 21.14 2.79284 22.2185 3.36884 23.218C3.37384 23.2285 3.37384 23.2395 3.37984 23.25C3.38834 23.2645 3.40034 23.2755 3.40984 23.289C3.99234 24.2855 4.69634 25.2025 5.50534 26.016C5.51334 26.0255 5.51634 26.037 5.52534 26.046C5.53434 26.055 5.54584 26.058 5.55534 26.066C6.37234 26.879 7.29434 27.5855 8.29634 28.1695C8.30584 28.176 8.31134 28.1855 8.32134 28.1915C8.33634 28.2 8.35284 28.204 8.36834 28.211C9.36384 28.783 10.4383 29.233 11.5718 29.5375C11.5738 29.538 11.5753 29.5395 11.5773 29.54C11.5798 29.5405 11.5823 29.5405 11.5848 29.541C12.6978 29.839 13.8658 30 15.0713 30C16.2768 30 17.4448 29.839 18.5578 29.541C18.5603 29.5405 18.5628 29.541 18.5653 29.54C18.5673 29.5395 18.5688 29.538 18.5708 29.5375C19.7043 29.233 20.7783 28.783 21.7743 28.211C21.7898 28.204 21.8063 28.2005 21.8213 28.1915C21.8313 28.1855 21.8368 28.176 21.8463 28.1695C22.8483 27.5855 23.7698 26.879 24.5873 26.066C24.5968 26.058 24.6083 26.055 24.6173 26.046C24.6263 26.037 24.6293 26.025 24.6373 26.016C25.4463 25.2025 26.1503 24.2855 26.7328 23.289C26.7423 23.2755 26.7543 23.265 26.7628 23.25C26.7688 23.2395 26.7683 23.2285 26.7738 23.218C27.3498 22.2185 27.8023 21.14 28.1083 20.001C28.1088 19.9985 28.1108 19.9965 28.1113 19.994C28.1118 19.9925 28.1113 19.9905 28.1118 19.989C28.4098 18.875 28.5713 17.7065 28.5713 16.5C28.5713 15.2935 28.4098 14.125 28.1118 13.011ZM26.7388 4.1255L27.4458 4.833L26.7388 5.54L26.0313 4.833L26.7388 4.1255ZM2.69684 4.833L3.40384 4.1255L4.11134 4.833L3.40384 5.54L2.69684 4.833ZM26.0498 19.9595L27.0073 20.216C26.7798 20.945 26.4848 21.6445 26.1338 22.31L25.2803 21.817C25.0413 21.6785 24.7353 21.76 24.5973 22C24.4593 22.2395 24.5413 22.545 24.7803 22.683L25.6318 23.1745C25.2253 23.8155 24.7638 24.4175 24.2508 24.9725L23.5563 24.278C23.3608 24.0825 23.0448 24.0825 22.8493 24.278C22.6538 24.4735 22.6538 24.7895 22.8493 24.985L23.5438 25.6795C22.9888 26.1925 22.3868 26.654 21.7458 27.0605L21.2543 26.209C21.1158 25.969 20.8093 25.887 20.5713 26.026C20.3318 26.164 20.2498 26.47 20.3883 26.709L20.8813 27.5625C20.2158 27.9135 19.5168 28.2085 18.7873 28.436L18.5308 27.479C18.4593 27.212 18.1853 27.053 17.9183 27.1255C17.6518 27.197 17.4933 27.471 17.5648 27.738L17.8203 28.692C17.0923 28.856 16.3408 28.957 15.5713 28.9875V28C15.5713 27.7235 15.3478 27.5 15.0713 27.5C14.7948 27.5 14.5713 27.7235 14.5713 28V28.9875C13.8018 28.957 13.0503 28.856 12.3223 28.692L12.5778 27.738C12.6493 27.4715 12.4908 27.197 12.2243 27.1255C11.9578 27.0535 11.6833 27.212 11.6118 27.479L11.3553 28.436C10.6263 28.2085 9.92684 27.9135 9.26134 27.5625L9.75434 26.709C9.89234 26.4695 9.81034 26.164 9.57134 26.026C9.33234 25.8875 9.02634 25.969 8.88834 26.209L8.39684 27.0605C7.75584 26.654 7.15384 26.1925 6.59884 25.6795L7.29334 24.985C7.48884 24.7895 7.48884 24.4735 7.29334 24.278C7.09784 24.0825 6.78184 24.0825 6.58634 24.278L5.89184 24.9725C5.37884 24.4175 4.91734 23.8155 4.51084 23.1745L5.36234 22.683C5.60184 22.545 5.68384 22.239 5.54534 22C5.40684 21.76 5.10034 21.678 4.86234 21.817L4.00884 22.31C3.65784 21.6445 3.36284 20.9455 3.13534 20.216L4.09284 19.9595C4.35934 19.888 4.51784 19.614 4.44634 19.347C4.37534 19.08 4.10134 18.921 3.83384 18.9935L2.87934 19.249C2.71584 18.521 2.61434 17.7695 2.58384 17H3.57134C3.84784 17 4.07134 16.7765 4.07134 16.5C4.07134 16.2235 3.84784 16 3.57134 16H2.58384C2.61434 15.2305 2.71534 14.479 2.87934 13.751L3.83384 14.007C3.87734 14.0185 3.92084 14.024 3.96384 14.024C4.18434 14.024 4.38634 13.877 4.44634 13.6535C4.51834 13.387 4.35934 13.1125 4.09284 13.041L3.13534 12.784C3.36284 12.055 3.65784 11.3555 4.00884 10.69L4.86234 11.183C4.94034 11.2285 5.02634 11.25 5.11134 11.25C5.28434 11.25 5.45234 11.1605 5.54484 11C5.68284 10.7605 5.60084 10.455 5.36184 10.317L4.51034 9.8255C4.91684 9.1845 5.37834 8.5825 5.89134 8.0275L6.58584 8.722C6.68334 8.8195 6.81134 8.8685 6.93934 8.8685C7.06734 8.8685 7.19534 8.8195 7.29284 8.722C7.48834 8.5265 7.48834 8.2105 7.29284 8.015L6.59834 7.3205C7.15334 6.808 7.75534 6.346 8.39634 5.9395L8.88784 6.7915C8.98084 6.9515 9.14834 7.0415 9.32134 7.0415C9.40634 7.0415 9.49234 7.02 9.57084 6.9745C9.81034 6.8365 9.89234 6.5305 9.75384 6.2915L9.26084 5.4375C9.92634 5.0865 10.6253 4.7915 11.3548 4.564L11.6113 5.5215C11.6708 5.7445 11.8728 5.892 12.0938 5.892C12.1368 5.892 12.1803 5.8865 12.2238 5.875C12.4903 5.8035 12.6488 5.5295 12.5773 5.2625L12.3218 4.308C12.9078 4.176 13.5083 4.0855 14.1218 4.0395C14.2768 4.028 14.4168 4.0195 14.5523 4.013C14.5588 4.013 14.5648 4.013 14.5713 4.0125V5C14.5713 5.2765 14.7948 5.5 15.0713 5.5C15.3478 5.5 15.5713 5.2765 15.5713 5V4.0125C15.5778 4.0125 15.5838 4.0125 15.5903 4.013C15.7258 4.0195 15.8653 4.028 16.0208 4.0395C16.6343 4.086 17.2353 4.176 17.8208 4.308L17.5653 5.2625C17.4938 5.529 17.6523 5.8035 17.9188 5.875C17.9623 5.8865 18.0058 5.892 18.0488 5.892C18.2693 5.892 18.4718 5.7445 18.5313 5.5215L18.7878 4.564C19.5168 4.7915 20.2163 5.0865 20.8818 5.4375L20.3888 6.2915C20.2508 6.531 20.3328 6.8365 20.5718 6.9745C20.6503 7.02 20.7363 7.0415 20.8213 7.0415C20.9943 7.0415 21.1623 6.9515 21.2548 6.7915L21.7463 5.9395C22.3873 6.346 22.9893 6.808 23.5443 7.3205L22.8498 8.015C22.6543 8.2105 22.6543 8.5265 22.8498 8.722C22.9473 8.8195 23.0753 8.8685 23.2033 8.8685C23.3313 8.8685 23.4593 8.8195 23.5568 8.722L24.2513 8.0275C24.7643 8.5825 25.2258 9.1845 25.6323 9.8255L24.7808 10.317C24.5413 10.455 24.4593 10.7605 24.5978 11C24.6908 11.1605 24.8583 11.25 25.0313 11.25C25.1163 11.25 25.2023 11.2285 25.2808 11.183L26.1343 10.69C26.4853 11.3555 26.7803 12.0545 27.0078 12.784L26.0503 13.041C25.7838 13.1125 25.6248 13.3865 25.6968 13.6535C25.7568 13.877 25.9583 14.024 26.1793 14.024C26.2223 14.024 26.2658 14.0185 26.3093 14.007L27.2638 13.751C27.4278 14.479 27.5288 15.2305 27.5593 16H26.5713C26.2948 16 26.0713 16.2235 26.0713 16.5C26.0713 16.7765 26.2948 17 26.5713 17H27.5588C27.5283 17.7695 27.4273 18.521 27.2633 19.2495L26.3088 18.994C26.0433 18.922 25.7678 19.081 25.6963 19.3475C25.6248 19.614 25.7833 19.888 26.0498 19.9595ZM14.5713 3.011V1.5H12.8213C12.6838 1.5 12.5713 1.3875 12.5713 1.25C12.5713 1.1125 12.6838 1 12.8213 1H17.3213C17.4588 1 17.5713 1.1125 17.5713 1.25C17.5713 1.3875 17.4588 1.5 17.3213 1.5H15.5713V3.011C15.3963 3.0035 15.2318 3 15.0713 3C14.9108 3 14.7463 3.0035 14.5713 3.011Z" fill="white"/>
</svg>
