<svg width="43" height="43" viewBox="0 0 43 43" fill="none" xmlns="http://www.w3.org/2000/svg">
<g clip-path="url(#clip0)">
<path d="M6.6841 37.3314C6.64705 37.3583 6.60606 37.3786 6.56246 37.3924C6.52147 37.4141 6.47655 37.4278 6.43064 37.4334C6.38048 37.4432 6.33457 37.4485 6.28736 37.4534C6.09751 37.4482 5.91684 37.3714 5.78109 37.2386C5.74798 37.2039 5.71748 37.1665 5.68994 37.1275C5.66404 37.0901 5.64338 37.0491 5.62928 37.0058C5.6083 36.9642 5.59485 36.9199 5.58895 36.874C5.57977 36.8265 5.57256 36.7786 5.56829 36.7307C5.57256 36.6825 5.57944 36.6347 5.58895 36.5875C5.59485 36.5416 5.6083 36.497 5.62928 36.4556C5.64338 36.4124 5.66371 36.371 5.68994 36.3337C5.71748 36.2947 5.74798 36.2576 5.78109 36.2228C5.91684 36.0901 6.09751 36.013 6.28736 36.0078C6.33326 36.013 6.37916 36.0179 6.43064 36.0281C6.47655 36.0337 6.52114 36.0471 6.56246 36.0681C6.60606 36.0822 6.64705 36.1032 6.6841 36.1297C6.88444 36.2632 7.00543 36.4868 7.00806 36.7271C7.00281 36.917 6.92608 37.098 6.79296 37.2334C6.75952 37.2691 6.72312 37.3019 6.6841 37.3314Z" fill="white"/>
<path d="M16.404 32.9471C16.7526 33.8928 16.3971 34.9535 15.5492 35.4981C14.7013 36.0427 13.5888 35.925 12.8736 35.2148L12.1264 35.9618C12.2428 37.2035 11.769 38.4271 10.8473 39.2669C9.86658 40.2476 8.1432 40.6515 6.62115 41.0083C5.79388 41.1273 4.99482 41.3942 4.26166 41.7962L3.24881 42.8087C2.96913 43.0884 2.51566 43.0884 2.23597 42.8087L1.22247 41.7962L0.209618 40.7824C-0.0697441 40.5027 -0.0697441 40.0495 0.209618 39.7695L1.22411 38.7603C1.62577 38.0274 1.89267 37.2284 2.01202 36.4011C2.37008 34.8804 2.77272 33.157 3.75311 32.175C4.59217 31.252 5.81651 30.7782 7.05822 30.8955L7.80876 30.1499C7.09855 29.4348 6.98084 28.3223 7.52546 27.4744C8.07008 26.6264 9.1308 26.271 10.0764 26.6196C11.5434 24.1755 17.7651 15.29 37.8312 0.661305C39.1205 -0.295145 40.916 -0.163006 42.0514 0.97247C43.1866 2.10762 43.3187 3.90314 42.3623 5.19239C27.7329 25.2621 18.8474 31.4808 16.404 32.9471ZM7.80876 32.1763C7.6176 32.3615 7.34119 32.4291 7.08609 32.3527C6.21948 32.1907 5.33353 32.5111 4.77022 33.1891C4.07837 33.881 3.72393 35.3938 3.40948 36.7284C3.10225 38.0406 2.83633 39.1737 2.23597 39.7731L1.72971 40.2797L2.23597 40.7866L2.74321 41.2932L3.2498 40.7866C3.84918 40.1872 4.98236 39.9207 6.29457 39.6134C7.62907 39.3006 9.14195 38.9459 9.8338 38.2527C10.5083 37.692 10.8293 36.8116 10.6738 35.9483C10.5883 35.6909 10.6555 35.4073 10.8473 35.2155L11.8608 34.202L8.82161 31.1628L7.80876 32.1763ZM9.32885 27.915C9.03932 27.9154 8.77832 28.0895 8.66717 28.357C8.55634 28.6243 8.61733 28.9322 8.82161 29.1371L13.8872 34.2026C14.0681 34.3836 14.3321 34.4541 14.5793 34.3879C14.8266 34.3217 15.0194 34.1285 15.0856 33.881C15.1518 33.6337 15.081 33.3701 14.9 33.1891L9.83445 28.1236C9.70002 27.9898 9.51771 27.9147 9.32787 27.915H9.32885ZM41.0393 1.98433C40.7028 1.64726 40.2461 1.45807 39.77 1.45873C39.3762 1.45873 38.9926 1.58398 38.6749 1.81678C18.4999 16.5219 12.434 25.4762 11.2306 27.4917L15.5282 31.7897C17.5339 30.5985 26.4466 24.588 41.2019 4.34382C41.7383 3.62509 41.6691 2.62273 41.0393 1.98433Z" fill="white"/>
</g>
<defs>
<clipPath id="clip0">
<rect width="43" height="43" fill="white" transform="matrix(-1 0 0 1 43 0)"/>
</clipPath>
</defs>
</svg>
