<svg width="44" height="32" viewBox="0 0 44 32" fill="none" xmlns="http://www.w3.org/2000/svg">
<path d="M42.92 13.0297H32.7358C32.3341 13.0297 32.0084 13.3535 32.0084 13.7529V15.9225H30.2153L28.5319 13.4123C27.8249 12.3572 26.9753 11.4038 26.007 10.5788C25.4816 10.1397 24.9246 9.73941 24.3404 9.38115L29.0106 4.73819C30.1049 3.66387 30.1159 1.91101 29.0352 0.823128C27.9546 -0.264751 26.1915 -0.27569 25.0972 0.798629C25.0889 0.806855 25.0805 0.815082 25.0722 0.823489L23.493 2.39284L21.3106 4.56245L18.4823 7.37427C18.4111 7.3391 18.3343 7.31587 18.2554 7.30556C17.8189 7.26506 17.3759 7.24409 16.9394 7.24409H8.73026C8.53731 7.24409 8.35235 7.32039 8.21596 7.45599L1.54386 14.0892C0.44961 15.1635 0.438425 16.9164 1.51904 18.0043C2.59965 19.0921 4.36279 19.1033 5.45705 18.0289C5.4655 18.0206 5.47387 18.0123 5.48223 18.0039L6.20095 17.2901L6.41045 17.9829C6.51665 18.3299 6.64123 18.671 6.78363 19.0048L3.85204 21.9193L2.39715 23.3657C2.31768 23.4454 2.25767 23.5421 2.22184 23.6485L0.766956 27.9877C0.639563 28.3665 0.845247 28.7763 1.22624 28.9029C1.30026 28.9274 1.37773 28.94 1.45584 28.9402C1.53395 28.9401 1.61152 28.9276 1.68572 28.9033L6.05036 27.4569C6.15757 27.4213 6.25496 27.3614 6.33479 27.2819L7.78968 25.8355L10.279 23.3607C12.0356 24.6401 14.1574 25.3281 16.3349 25.3242H22.5517C22.5828 25.3201 22.6138 25.3139 22.644 25.3054C23.1957 25.9125 23.8548 26.4138 24.5885 26.7843C25.5283 27.25 26.5639 27.4928 27.6139 27.4938H32.0084V28.217C32.0084 28.6164 32.3341 28.9402 32.7358 28.9402H42.92C43.3217 28.9402 43.6475 28.6164 43.6475 28.217V13.7529C43.6475 13.3534 43.3217 13.0297 42.92 13.0297ZM26.1008 1.84538C26.621 1.32937 27.4633 1.33018 27.9825 1.84727C28.2313 2.09515 28.3711 2.43099 28.3712 2.7812C28.3721 3.13204 28.232 3.4687 27.982 3.7163L26.9163 4.77507L25.0351 2.90487L26.1008 1.84538ZM24.0065 3.92748L25.8877 5.79768L24.734 6.94468L22.8528 5.07448L24.0065 3.92748ZM4.45363 16.982C3.93351 17.498 3.09113 17.4972 2.57201 16.9801C2.32314 16.7322 2.18338 16.3964 2.18329 16.0462C2.18238 15.6954 2.3225 15.3587 2.57247 15.1111L9.03142 8.69049H16.9394C17.0085 8.69049 17.0791 8.69917 17.1489 8.70062L14.2486 11.5833H10.1851C9.99219 11.5833 9.80724 11.6596 9.67084 11.7952L4.45363 16.982ZM12.7937 13.0297L7.91989 17.8752C7.88425 17.7718 7.83769 17.6698 7.80641 17.5656L7.36994 16.1257L10.4863 13.0297H12.7937ZM5.42767 26.1385L2.60593 27.0736L3.54651 24.2683L4.63767 23.1835C5.62027 23.3075 6.39408 24.0768 6.51884 25.0537L5.42767 26.1385ZM7.69729 23.8821C7.32848 23.0462 6.65696 22.3786 5.81613 22.0119L15.0634 12.8185L21.8242 6.09709L23.7054 7.96729L16.431 15.1993H15.4533C13.8547 15.1952 12.5554 16.4801 12.5512 18.0694C12.5504 18.3698 12.597 18.6683 12.689 18.9542C12.6499 18.9747 12.6129 18.9989 12.5784 19.0265L7.69729 23.8821ZM16.3349 23.8778C14.5433 23.8795 12.7937 23.3383 11.3192 22.3265L13.4652 20.193C14.0031 20.6977 14.7137 20.9807 15.4533 20.9849H19.9474L21.6096 23.8778H16.3349ZM32.0084 26.0474H27.6139C25.7084 26.0474 23.9489 25.0323 23.0034 23.3874L21.0007 19.9001C20.8705 19.676 20.6298 19.538 20.3693 19.5385H15.4533C14.6497 19.5385 13.9984 18.891 13.9984 18.0921C13.9984 17.2933 14.6497 16.6457 15.4533 16.6457H22.5517C22.9534 16.6457 23.2791 16.3219 23.2791 15.9225C23.2791 15.5231 22.9534 15.1993 22.5517 15.1993H18.4882L23.2842 10.4312C24.9066 11.3643 26.2887 12.6593 27.3215 14.2143L29.2208 17.0471C29.3558 17.2482 29.5829 17.3689 29.8261 17.3689H32.0084V26.0474ZM42.1926 27.4938H33.4633V14.4761H42.1926V27.4938Z" fill="white"/>
<path d="M37.8274 26.0471C38.6309 26.0471 39.2823 25.3995 39.2823 24.6007C39.2823 23.8019 38.6309 23.1543 37.8274 23.1543C37.0239 23.1543 36.3726 23.8019 36.3726 24.6007C36.3726 25.3995 37.0239 26.0471 37.8274 26.0471Z" fill="white"/>
<path d="M16.0037 30.3865H0.727441C0.325712 30.3865 0 30.7103 0 31.1097C0 31.5091 0.325712 31.8329 0.727441 31.8329H16.0037C16.4054 31.8329 16.7311 31.5091 16.7311 31.1097C16.7311 30.7103 16.4054 30.3865 16.0037 30.3865Z" fill="white"/>
<path d="M19.6409 30.3865H18.9135C18.5117 30.3865 18.186 30.7103 18.186 31.1097C18.186 31.5091 18.5117 31.8329 18.9135 31.8329H19.6409C20.0426 31.8329 20.3683 31.5091 20.3683 31.1097C20.3683 30.7103 20.0426 30.3865 19.6409 30.3865Z" fill="white"/>
</svg>
