<svg width="31" height="31" viewBox="0 0 31 31" fill="none" xmlns="http://www.w3.org/2000/svg">
    <path d="M14.8739 14.2476H0.626115C0.280332 14.2476 0 14.8082 0 15.4998C0 16.1914 0.280332 16.752 0.626115 16.752H14.8739C15.2197 16.752 15.5 16.1914 15.5 15.4998C15.5 14.8082 15.2197 14.2476 14.8739 14.2476Z" fill="white"/>
    <path d="M29.7478 4.74902H1.25223C0.560664 4.74902 0 5.30969 0 6.00125C0 6.69282 0.560664 7.25348 1.25223 7.25348H29.7478C30.4394 7.25348 31 6.69282 31 6.00125C31 5.30969 30.4394 4.74902 29.7478 4.74902Z" fill="white"/>
    <path d="M29.7478 23.7461H1.25223C0.560664 23.7461 0 24.3067 0 24.9983C0 25.69 0.560664 26.2506 1.25223 26.2506H29.7478C30.4394 26.2506 31 25.69 31 24.9983C31 24.3067 30.4394 23.7461 29.7478 23.7461Z" fill="white"/>
</svg>
