<svg width="39" height="26" viewBox="0 0 39 26" fill="none" xmlns="http://www.w3.org/2000/svg">
<path d="M38.5918 3.258C38.5918 2.43894 38.2665 1.69793 37.7473 1.13295C37.7387 1.12173 37.7367 1.1085 37.7274 1.09722C37.7187 1.08731 37.7067 1.0833 37.6974 1.07409C37.1071 0.460088 36.2753 0.0717773 35.3489 0.0717773H3.24354C2.31721 0.0717773 1.48534 0.460088 0.893729 1.07409C0.88509 1.0833 0.872415 1.08731 0.863776 1.09791C0.854443 1.1085 0.852489 1.12236 0.84385 1.13364C0.325445 1.69862 0 2.43894 0 3.258V22.0369C0 22.8759 0.338751 23.6347 0.880424 24.2043C0.89108 24.2162 0.894423 24.2308 0.906404 24.2421C0.910376 24.246 0.915043 24.2467 0.919078 24.2507C1.50937 24.8488 2.33121 25.2233 3.24361 25.2233H35.349C36.2614 25.2233 37.0839 24.8482 37.6735 24.2501C37.6775 24.2467 37.6822 24.2455 37.6861 24.2421C37.6975 24.2316 37.7008 24.217 37.7114 24.2057C38.2538 23.6361 38.5925 22.8766 38.5925 22.037V3.258H38.5918ZM25.9604 11.6551L37.0819 2.48721C37.191 2.72274 37.2556 2.98272 37.2556 3.25794V22.0369C37.2556 22.2857 37.2037 22.5218 37.1138 22.7395L25.9604 11.6551ZM35.3489 1.38497C35.6291 1.38497 35.8933 1.44848 36.1335 1.55568L19.2962 15.4341L2.45897 1.55568C2.69922 1.44854 2.96344 1.38497 3.24354 1.38497H35.3489ZM1.47872 22.7389C1.38886 22.522 1.33697 22.2851 1.33697 22.0363V3.258C1.33697 2.98278 1.40154 2.72274 1.51063 2.48727L12.6321 11.6551L1.47872 22.7389ZM3.24354 23.9093C2.93481 23.9093 2.64726 23.8299 2.3891 23.7016L13.6596 12.5013L18.867 16.7939C18.9908 16.8964 19.1438 16.948 19.2962 16.948C19.4486 16.948 19.6017 16.8964 19.7255 16.7939L24.9328 12.5013L36.2034 23.7016C35.9451 23.83 35.6577 23.9093 35.3489 23.9093H3.24354Z" fill="white"/>
</svg>
