<svg width="43" height="43" viewBox="0 0 43 43" fill="none" xmlns="http://www.w3.org/2000/svg">
<g clip-path="url(#clip0)">
<path d="M32.9666 7.16667H28.6666V5.01667C28.6666 4.62089 28.3457 4.3 27.9499 4.3H23.6499V0.716667C23.6499 0.320887 23.329 0 22.9333 0H14.3333C13.9375 0 13.6166 0.320887 13.6166 0.716667V4.3H9.31659C8.92081 4.3 8.59992 4.62089 8.59992 5.01667V7.16667H4.29992C3.90414 7.16667 3.58325 7.48755 3.58325 7.88333V42.2833C3.58325 42.6791 3.90414 43 4.29992 43H32.9666C33.3624 43 33.6833 42.6791 33.6833 42.2833V7.88333C33.6833 7.48755 33.3624 7.16667 32.9666 7.16667ZM15.0499 1.43333H22.2166V4.3H15.0499V1.43333ZM10.0333 5.73333H27.2333V11.4667H10.0333V5.73333ZM9.31659 12.9H27.9499C28.3457 12.9 28.6666 12.5791 28.6666 12.1833V11.4667H29.3833V38.7H7.88325V11.4667H8.59992V12.1833C8.59992 12.5791 8.92081 12.9 9.31659 12.9ZM32.2499 41.5667H5.01659V8.6H8.59992V10.0333H7.16659C6.77081 10.0333 6.44992 10.3542 6.44992 10.75V39.4167C6.44992 39.8124 6.77081 40.1333 7.16659 40.1333H30.0999C30.4957 40.1333 30.8166 39.8124 30.8166 39.4167V10.75C30.8166 10.3542 30.4957 10.0333 30.0999 10.0333H28.6666V8.6H32.2499V41.5667Z" fill="white"/>
<path d="M12.1833 15.7666H10.0333C9.63754 15.7666 9.31665 16.0875 9.31665 16.4833C9.31665 16.879 9.63754 17.1999 10.0333 17.1999H12.1833C12.5791 17.1999 12.9 16.879 12.9 16.4833C12.9 16.0875 12.5791 15.7666 12.1833 15.7666Z" fill="white"/>
<path d="M21.4999 15.7666H15.0499C14.6541 15.7666 14.3333 16.0875 14.3333 16.4833C14.3333 16.879 14.6541 17.1999 15.0499 17.1999H21.4999C21.8957 17.1999 22.2166 16.879 22.2166 16.4833C22.2166 16.0875 21.8957 15.7666 21.4999 15.7666Z" fill="white"/>
<path d="M27.2332 14.3333H24.3666C23.9708 14.3333 23.6499 14.6542 23.6499 15.05V17.9166C23.6499 18.3124 23.9708 18.6333 24.3666 18.6333H27.2332C27.629 18.6333 27.9499 18.3124 27.9499 17.9166V15.05C27.9499 14.6542 27.629 14.3333 27.2332 14.3333ZM26.5166 17.2H25.0832V15.7666H26.5166V17.2Z" fill="white"/>
<path d="M12.1833 21.5H10.0333C9.63754 21.5 9.31665 21.8209 9.31665 22.2167C9.31665 22.6124 9.63754 22.9333 10.0333 22.9333H12.1833C12.5791 22.9333 12.9 22.6124 12.9 22.2167C12.9 21.8209 12.5791 21.5 12.1833 21.5Z" fill="white"/>
<path d="M21.4999 21.5H15.0499C14.6541 21.5 14.3333 21.8209 14.3333 22.2167C14.3333 22.6124 14.6541 22.9333 15.0499 22.9333H21.4999C21.8957 22.9333 22.2166 22.6124 22.2166 22.2167C22.2166 21.8209 21.8957 21.5 21.4999 21.5Z" fill="white"/>
<path d="M27.2332 20.0667H24.3666C23.9708 20.0667 23.6499 20.3875 23.6499 20.7833V23.65C23.6499 24.0458 23.9708 24.3667 24.3666 24.3667H27.2332C27.629 24.3667 27.9499 24.0458 27.9499 23.65V20.7833C27.9499 20.3875 27.629 20.0667 27.2332 20.0667ZM26.5166 22.9333H25.0832V21.5H26.5166V22.9333Z" fill="white"/>
<path d="M12.1833 27.2334H10.0333C9.63754 27.2334 9.31665 27.5543 9.31665 27.9501C9.31665 28.3458 9.63754 28.6667 10.0333 28.6667H12.1833C12.5791 28.6667 12.9 28.3458 12.9 27.9501C12.9 27.5543 12.5791 27.2334 12.1833 27.2334Z" fill="white"/>
<path d="M21.4999 27.2334H15.0499C14.6541 27.2334 14.3333 27.5543 14.3333 27.9501C14.3333 28.3458 14.6541 28.6667 15.0499 28.6667H21.4999C21.8957 28.6667 22.2166 28.3458 22.2166 27.9501C22.2166 27.5543 21.8957 27.2334 21.4999 27.2334Z" fill="white"/>
<path d="M27.2332 25.7999H24.3666C23.9708 25.7999 23.6499 26.1208 23.6499 26.5166V29.3833C23.6499 29.779 23.9708 30.0999 24.3666 30.0999H27.2332C27.629 30.0999 27.9499 29.779 27.9499 29.3833V26.5166C27.9499 26.1208 27.629 25.7999 27.2332 25.7999ZM26.5166 28.6666H25.0832V27.2333H26.5166V28.6666Z" fill="white"/>
<path d="M12.1833 32.9667H10.0333C9.63754 32.9667 9.31665 33.2876 9.31665 33.6833C9.31665 34.0791 9.63754 34.4 10.0333 34.4H12.1833C12.5791 34.4 12.9 34.0791 12.9 33.6833C12.9 33.2876 12.5791 32.9667 12.1833 32.9667Z" fill="white"/>
<path d="M21.4999 32.9667H15.0499C14.6541 32.9667 14.3333 33.2876 14.3333 33.6833C14.3333 34.0791 14.6541 34.4 15.0499 34.4H21.4999C21.8957 34.4 22.2166 34.0791 22.2166 33.6833C22.2166 33.2876 21.8957 32.9667 21.4999 32.9667Z" fill="white"/>
<path d="M27.2332 31.5333H24.3666C23.9708 31.5333 23.6499 31.8542 23.6499 32.25V35.1167C23.6499 35.5124 23.9708 35.8333 24.3666 35.8333H27.2332C27.629 35.8333 27.9499 35.5124 27.9499 35.1167V32.25C27.9499 31.8542 27.629 31.5333 27.2332 31.5333ZM26.5166 34.4H25.0832V32.9667H26.5166V34.4Z" fill="white"/>
<path d="M38.7 21.5H37.9834V20.0667C37.9834 19.6709 37.6625 19.35 37.2667 19.35C36.8709 19.35 36.55 19.6709 36.55 20.0667V21.5H35.8334C35.4376 21.5 35.1167 21.8209 35.1167 22.2167V42.2834C35.1167 42.6792 35.4376 43 35.8334 43H38.7C39.0958 43 39.4167 42.6792 39.4167 42.2834V22.2167C39.4167 21.8209 39.0958 21.5 38.7 21.5ZM37.9834 41.5667H36.55V27.2334H37.9834V41.5667ZM37.9834 25.8H36.55V22.9334H37.9834V25.8Z" fill="white"/>
</g>
<defs>
<clipPath id="clip0">
<rect width="43" height="43" fill="white"/>
</clipPath>
</defs>
</svg>
